<svg id="Layer_1" data-name="Layer 1" xmlns="http://www.w3.org/2000/svg" viewBox="0 0 132.64 32.92"><defs><style>.cls-1{fill:#056eb5;}</style></defs><title>logoAzul-responsive</title><polygon class="cls-1" points="98.96 32.84 116.74 32.84 116.74 21.79 130.71 21.79 130.71 14.25 116.74 14.25 116.74 9.7 132.64 9.7 132.64 0 98.96 0 98.96 32.84"/><path class="cls-1" d="M80.13,8.54H56V41.38H77.62c.28,0,1.21,0,2.51-.07,6.66-.3,23.93-2.46,23.93-15.68,0-15.44-15.26-16.95-23.93-17.09m0,23.59c-1,.08-1.94.08-2.51.08H73.75V18.15h3.87a16.84,16.84,0,0,1,2.51.15c2.72.3,6.38,2,6.38,6.88s-3.59,6.56-6.38,6.94" transform="translate(-8.54 -8.54)"/><path class="cls-1" d="M41.29,25C46.81,23.92,51,20.78,51,17.19c0-4.55-6.6-8.65-14.69-8.65H8.54V41.38l23.79.07h4C45.44,41,52,37.43,52,32.95c0-3.66-4.44-6.73-10.68-7.91m-8.6,9.46H26.31V16.59h6c2.71,0,4.92,1.7,4.92,3.8s-2.2,3.8-4.92,3.8H28.09v2h4.6c3.18,0,5.75,1.86,5.75,4.16s-2.57,4.16-5.75,4.16" transform="translate(-8.54 -8.54)"/></svg>