<svg width="157" height="42" viewBox="0 0 157 42" fill="none" xmlns="http://www.w3.org/2000/svg">
<g clip-path="url(#clip0_1381_24036)">
<path d="M29.6016 7.5332L45.4604 20.2299L41.231 30.6794H29.6016V7.5332Z" fill="#B80023"/>
<path d="M27.4872 0.0203857L0 7.42153V19.8348L27.4872 8.00026V0.0203857Z" fill="#B80023"/>
<path d="M27.4872 10.3024L0 22.1369V35.8751L27.4872 19.0832V10.3024Z" fill="#B80023"/>
<path d="M20.0381 41.2511H38.0583V32.7935H28.8157L20.0381 41.2511Z" fill="#B80023"/>
<path d="M27.4872 21.5614L0 38.3522V41.2512H16.9916L27.4872 31.139V21.5614Z" fill="#B80023"/>
<path d="M83.7024 19.8251V19.7177C86.9353 18.3713 89.0903 15.5689 89.0903 11.0442C89.0903 4.63307 84.673 0.63562 75.8911 0.63562H59.46V41.1696H76.1069C86.289 41.1696 90.5452 36.6331 90.5452 29.3608C90.5452 24.2435 88.1744 21.0642 83.7034 19.8251H83.7024ZM68.1871 8.28586H75.5668C78.9608 8.28586 80.4157 9.48199 80.4157 12.6602C80.4157 15.8384 79.0156 17.1322 75.7826 17.1322H68.1871V8.28694V8.28586ZM76.2132 33.7351H68.1861V23.8655H75.9974C79.9304 23.8655 81.439 25.2667 81.439 28.6607C81.439 32.4853 79.823 33.7351 76.2132 33.7351Z" fill="#B80023"/>
<path d="M115.415 0.63562H104.586L90.585 41.1696H100.174L102.485 33.2391H117.139L119.45 41.1696H129.578L115.415 0.63562ZM104.694 25.6436L108.734 11.798L109.865 7.54178H110.027L111.104 11.798L114.983 25.6436H104.693H104.694Z" fill="#B80023"/>
<path d="M147.872 33.6493C140.492 33.6493 137.869 30.8157 137.869 20.6873C137.869 11.098 140.384 8.13449 147.711 8.13449C150.729 8.13449 154.308 8.6735 156.41 9.48093V1.66963C154.094 0.75375 150.405 0 147.173 0C134.244 0 128.334 7.16492 128.334 20.6336C128.334 35.0719 134.352 41.86 146.582 41.86C150.137 41.86 154.016 40.9441 156.655 39.6513V31.8132C154.393 32.7828 150.837 33.6503 147.875 33.6503L147.872 33.6493Z" fill="#B80023"/>
</g>
<defs>
<clipPath id="clip0_1381_24036">
<rect width="156.296" height="41.86" fill="white"/>
</clipPath>
</defs>
</svg>
