<svg id="Capa_1" data-name="Capa 1" xmlns="http://www.w3.org/2000/svg" viewBox="0 0 738 360">
  <path d="m122.29,121.71c2.42,5.02.35,9.52-5.02,10.21l-11.59,1.56c-69.39,9.34-87.21,33.74-91.19,50.18l-10.38-24.05c-11.07-26.47,22.32-54.51,106.07-62.29l12.11,24.39Zm-13.67,22.84c-76.31,10.38-92.92,42.05-85.48,59.18l11.25,26.13c0-22.84,30.63-39.8,78.38-48.8,6.23-1.21,9.52-5.54,7.09-11.07l-11.24-25.44Zm-58.83,76.48c-3.98,3.98-6.75,9.52-6.75,14.36,0,14.36,14.71,23.88,50.53,24.57l-13.15-25.96c-21.46,1.4-27.86-5.53-30.63-12.97Zm559.98-13.03c-9.17-1.87-16.3-3.4-16.3-9.17,0-5.26,5.6-7.98,16.81-7.98,7.3,0,13.76,1.19,20.04,3.23l4.59-17.66c-5.6-2.04-13.59-4.08-24.63-4.08-22.42,0-37.36,11.21-37.36,27.85,0,18.51,16.13,22.25,29.04,25.13,9.17,2.04,16.98,3.74,16.98,9.85,0,6.79-7.47,9-16.3,9s-15.28-2.72-21.23-9.17l-12.4,15.28c8.32,8.15,19.87,12.23,32.95,12.23,22.25,0,37.7-11.72,37.7-28.36,0-19.7-16.65-23.26-29.89-26.15Zm126.18-27v78.97h-18.34v-7.3c-6.28,5.77-15.11,9.85-26.32,9.85-23.95,0-41.27-17.83-41.27-42.63,0-28.87,19.53-47.55,49.76-47.55,13.41,0,25.47,2.88,36.17,8.66Zm-20.04,12.73c-4.76-1.87-10.7-2.89-17.15-2.89-17.49,0-27.85,10.19-27.85,27.51,0,16.3,10.02,26.49,26.49,26.49,7.3,0,13.76-1.87,18.51-5.09v-46.02Zm-192.93-21.39c-10.02,0-18.85,2.89-25.13,8.49v-39.23h-20.04v118.37h20.04v-64.37c6.62-3.4,12.74-4.93,19.36-4.93,11.38,0,18.17,5.43,18.17,14.44v54.85h20.04v-55.36c0-20.21-12.06-32.26-32.44-32.26Zm-61.98,45.17c0,25.81-20.04,45.17-46.7,45.17s-46.7-19.36-46.7-45.17,20.21-45.17,46.7-45.17,46.7,19.36,46.7,45.17Zm-20.89,0c0-17.66-12.91-26.83-25.81-26.83s-25.64,9.17-25.64,26.83,12.91,26.66,25.64,26.66,25.81-9.17,25.81-26.66Zm-108.18,26.49c-12.91,0-26.66-8.32-26.66-26.66,0-15.45,11.04-26.32,26.83-26.32,9,0,14.44,3.57,18.34,6.96l11.72-14.27c-5.09-5.94-16.81-11.38-30.4-11.38-27.51,0-47.55,19.19-47.55,45.68s18.85,44.67,45.68,44.67c14.27,0,27-5.26,33.8-13.42l-11.89-13.25c-5.61,5.62-12.06,7.99-19.87,7.99Zm-83.9,15.97h20.04v-84.91h-20.04v84.91Zm10.02-118.37c-6.79,0-12.23,5.43-12.23,12.23s5.43,12.23,12.23,12.23,12.23-5.43,12.23-12.23-5.44-12.23-12.23-12.23Zm-101.9,118.37h21.91v-45.51h52.14v-19.02h-52.14v-32.1h55.36v-18.85h-77.27v115.48Z" style="fill: #0066CC;stroke-width: 0px;"></path>
</svg>