<?xml version="1.0" encoding="utf-8"?>
<!-- Generator: Adobe Illustrator 19.1.0, SVG Export Plug-In . SVG Version: 6.00 Build 0)  -->
<svg version="1.1" id="Capa_1" xmlns="http://www.w3.org/2000/svg" xmlns:xlink="http://www.w3.org/1999/xlink" x="0px" y="0px"
	 viewBox="0 0 345.1 56.5" style="enable-background:new 0 0 345.1 56.5;" xml:space="preserve">
<style type="text/css">
	.st0{fill:#D31E21;}
	.st1{clip-path:url(#SVGID_2_);fill:#D31E21;}
	.st2{clip-path:url(#SVGID_4_);fill:#D31E21;}
	.st3{fill:#7F7B7D;}
	.st4{fill:#D51C20;}
</style>
<g>
	<g>
		<path class="st0" d="M96.6,7.7c0,2.3-1.2,4.6-3.7,5.5c2.3,0.8,4.1,2.6,4.1,6c0,6.1-4.8,7.2-10.2,7.2c-3.3,0-6.3-0.3-8.8-0.7V1.4
			c2-0.4,5.2-0.8,8.4-0.8C91.2,0.7,96.6,1.6,96.6,7.7 M83.9,15.4v6c0.8,0.1,1.8,0.2,2.8,0.2c2.6,0,4.4-0.4,4.4-3
			c0-2.8-2-3.2-4.5-3.2H83.9z M86.6,11.1c2.5,0,4.3-0.4,4.3-2.9c0-2.5-1.8-2.8-4.5-2.8c-0.8,0-1.7,0.1-2.5,0.2v5.6H86.6z"/>
		<path class="st0" d="M100.3,20.1c0-3.5,1.5-5.6,5.5-6.2c1.9-0.3,3.6-0.4,5.5-0.5c0-1.7-0.9-2.4-2.9-2.4c-2.3,0-5,0.3-6.9,0.5
			l-0.4-4.2c2-0.3,4.8-0.8,7.7-0.8c4.4,0,8,1.2,8,6.3v7.8c0,1.3,0,2.5-0.2,3.8c-2.3,1.4-5.2,1.9-8.6,1.9
			C102.4,26.4,100.3,24.3,100.3,20.1 M111.2,17c-1.2,0.1-2.5,0.1-3.6,0.4c-1.4,0.3-1.9,0.8-1.9,2.6c0,1.6,1,2.1,2.7,2.1
			c0.9,0,1.9-0.1,2.7-0.4c0.1-0.8,0.1-1.7,0.1-2.6V17z"/>
		<path class="st0" d="M126.1,26.1h-5.5V12.3c0-1.3,0-2.5,0.2-3.8c2.3-1.3,5.4-1.9,8.5-1.9c7.1,0,7.9,3,7.9,7.4v12.2h-5.5V14.4
			c0-2.3-0.4-3.3-3.1-3.3c-0.9,0-1.8,0.1-2.4,0.4c-0.1,0.8-0.1,1.7-0.1,2.6V26.1z"/>
		<path class="st0" d="M154.5,25.6c-1.7,0.5-3.9,0.8-6.6,0.8c-6.5,0-7.4-5-7.4-10c0-6.3,1.5-9.7,8.6-9.7c2.3,0,4,0.4,5.4,0.8l-0.4,4
			c-1.3-0.3-2.4-0.5-3.7-0.5c-3.9,0-4.4,1.3-4.4,5.4c0,3.9,0.2,5.6,4.4,5.6c1.3,0,2.3-0.2,3.6-0.5L154.5,25.6z"/>
		<path class="st0" d="M156.9,16.5c0-7.2,2.3-9.9,8.7-9.9c6.4,0,8.7,2.8,8.7,9.9c0,7.1-2.3,9.9-8.7,9.9
			C159.2,26.4,156.9,23.7,156.9,16.5 M168.8,16.5c0-4.2-0.6-5.4-3.2-5.4c-2.5,0-3.1,1.1-3.1,5.4c0,4.3,0.6,5.4,3.1,5.4
			C168.2,21.9,168.8,20.7,168.8,16.5"/>
		<path class="st0" d="M75.9,56.2l7.4-21.5c1-2.9,2.4-4.1,4.5-4.1c2.1,0,3.6,1.3,4.5,4.1l7.3,21.5h-6.3l-1.7-5.8h-7.9L82,56.2H75.9z
			 M90.2,45.9l-2.6-8.9L85,45.9H90.2z"/>
		<path class="st0" d="M120.1,30.7v19.5c0,1.3,0.6,2,2,2c0.6,0,1.1-0.1,1.7-0.2l0.5,4.1c-1.2,0.2-2.5,0.4-3.7,0.4
			c-4.2,0-6-1.9-6-5.6V30.7H120.1z"/>
		<path class="st0" d="M125.7,50.2c0-3.5,1.5-5.6,5.5-6.3c1.9-0.3,3.7-0.4,5.5-0.5c0-1.8-0.9-2.4-3-2.4c-2.4,0-5,0.3-6.9,0.5
			l-0.5-4.2c2-0.3,4.9-0.8,7.7-0.8c4.4,0,8.1,1.2,8.1,6.4v7.8c0,1.4-0.1,2.5-0.2,3.8c-2.3,1.4-5.3,1.9-8.7,1.9
			C127.9,56.5,125.7,54.4,125.7,50.2 M136.7,47.1c-1.2,0.1-2.5,0.1-3.6,0.4c-1.4,0.3-1.9,0.8-1.9,2.6c0,1.6,1,2.1,2.7,2.1
			c0.9,0,1.9-0.1,2.8-0.4c0.1-0.8,0.1-1.7,0.1-2.6V47.1z M136.3,34.5H132l2.8-4.8h5.5L136.3,34.5z"/>
		<path class="st0" d="M151.9,56.2h-5.5V42.3c0-1.4,0-2.5,0.2-3.8c2.3-1.3,5.4-1.9,8.6-1.9c7.2,0,8,3.1,8,7.4v12.2h-5.5V44.4
			c0-2.3-0.4-3.3-3.1-3.3c-0.9,0-1.8,0.1-2.4,0.4c-0.1,0.8-0.1,1.7-0.1,2.6V56.2z"/>
		<path class="st0" d="M180.2,32.2c0-2,0.7-2.8,3-2.8c2.2,0,3,0.8,3,2.8c0,2-0.7,2.8-3,2.8C181,35,180.2,34.2,180.2,32.2
			 M180.4,36.6h5.6v19.6h-5.6V36.6z"/>
		<path class="st0" d="M201.7,30.7h5.6v20.1c0,1.4,0,2.5-0.2,3.8c-2.2,1.3-5.3,1.9-8,1.9c-6.6,0-9.3-2.3-9.3-9.9
			c0-7.5,2.8-9.9,8.8-9.9c1,0,2.1,0.1,3.1,0.3V30.7z M199.6,41.1c-4,0-4.2,2.4-4.2,5.5c0,2.7,0.1,5.5,3.7,5.5c0.9,0,1.9-0.1,2.5-0.4
			c0.1-0.8,0.1-1.7,0.1-2.6v-7.7C201.1,41.2,200.3,41.1,199.6,41.1"/>
		<path class="st0" d="M210.8,50.2c0-3.5,1.5-5.6,5.5-6.3c1.9-0.3,3.7-0.4,5.5-0.5c0-1.7-0.9-2.4-3-2.4c-2.3,0-5,0.3-6.9,0.5
			l-0.4-4.2c2-0.3,4.9-0.8,7.7-0.8c4.4,0,8.1,1.2,8.1,6.4v7.8c0,1.4,0,2.5-0.2,3.8c-2.3,1.4-5.3,1.9-8.6,1.9
			C213,56.5,210.8,54.4,210.8,50.2 M221.8,47.1c-1.2,0.1-2.5,0.1-3.6,0.4c-1.4,0.3-1.9,0.8-1.9,2.6c0,1.6,1,2.1,2.7,2.1
			c0.9,0,1.9-0.1,2.8-0.4c0.1-0.8,0.1-1.7,0.1-2.6V47.1z"/>
		<path class="st0" d="M172.6,30.7v5.9h4.8v4.6h-4.8v9c0,1.3,0.6,2,2,2c0.6,0,1.2,0,1.8-0.1l0.4,4c-1.2,0.2-2.5,0.4-3.7,0.4
			c-4.2,0-6-1.9-6-5.6V30.7H172.6z"/>
		<path class="st0" d="M106.8,30.7v5.9h4.8v4.6h-4.8v9c0,1.3,0.6,2,2,2c0.6,0,1.2,0,1.8-0.1l0.4,4c-1.2,0.2-2.5,0.4-3.7,0.4
			c-4.2,0-6-1.9-6-5.6V30.7H106.8z"/>
	</g>
	<g>
		<defs>
			<path id="SVGID_1_" d="M1.8,0.6C0.8,0.6,0,1.4,0,2.4v30.1c0,14.6,9.4,24,23.9,24h12.4c1,0,1.8-0.8,1.8-1.8V39.9
				c0-1-0.8-1.8-1.8-1.8h-7.9c-1,0-5.7-0.2-5.7-5.7V2.4c0-1-0.8-1.8-1.8-1.8H1.8z"/>
		</defs>
		<use xlink:href="#SVGID_1_"  style="overflow:visible;fill:#D31E21;"/>
		<clipPath id="SVGID_2_">
			<use xlink:href="#SVGID_1_"  style="overflow:visible;"/>
		</clipPath>
		<rect x="0" y="0.6" class="st1" width="38.1" height="55.9"/>
	</g>
	<g>
		<defs>
			<path id="SVGID_3_" d="M27.2,8.6c-1,0-1.8,0.8-1.8,1.8v17c0,1,0.8,1.8,1.8,1.8h9c1,0,4.6,0.2,4.6,5.7v19.6c0,1,0.8,1.8,1.8,1.8
				h19c1,0,1.8-0.8,1.8-1.8v-22c0-13.3-10.8-24.1-24.1-24.1H27.2z"/>
		</defs>
		<use xlink:href="#SVGID_3_"  style="overflow:visible;fill:#D31E21;"/>
		<clipPath id="SVGID_4_">
			<use xlink:href="#SVGID_3_"  style="overflow:visible;"/>
		</clipPath>
		<rect x="25.4" y="8.6" class="st2" width="38.1" height="47.9"/>
	</g>
	<g>
		<path class="st3" d="M264.6,14.7c-0.1,0.1-0.2,0.1-0.3,0.1h-1.8c-0.1,0-0.2,0-0.3-0.1c-0.1-0.1-0.1-0.2-0.1-0.3V1.4
			c0-0.1,0-0.2,0.1-0.3c0.1-0.1,0.2-0.1,0.3-0.1h1.8c0.1,0,0.2,0,0.3,0.1c0.1,0.1,0.1,0.2,0.1,0.3v13.1
			C264.7,14.6,264.7,14.6,264.6,14.7"/>
		<path class="st3" d="M282.5,14.7c-0.1,0.1-0.2,0.1-0.3,0.1h-1.7c-0.1,0-0.2,0-0.3-0.1c-0.1-0.1-0.1-0.2-0.1-0.3V8.1
			c0-0.4,0-0.7-0.1-0.9c0-0.2-0.1-0.4-0.2-0.5c-0.1-0.1-0.2-0.2-0.4-0.3c-0.2-0.1-0.4-0.1-0.7-0.1c-0.2,0-0.4,0-0.7,0.1
			c-0.3,0.1-0.7,0.2-1,0.4c0,0.2,0,0.4,0.1,0.7c0,0.2,0,0.5,0,0.7v6.3c0,0.1,0,0.2-0.1,0.3c-0.1,0.1-0.2,0.1-0.3,0.1h-1.7
			c-0.1,0-0.2,0-0.3-0.1c-0.1-0.1-0.1-0.2-0.1-0.3V8.1c0-0.4,0-0.7-0.1-0.9c0-0.2-0.1-0.4-0.2-0.5c-0.1-0.1-0.2-0.2-0.4-0.3
			c-0.2-0.1-0.4-0.1-0.6-0.1c-0.4,0-0.9,0.2-1.7,0.6v7.5c0,0.1,0,0.2-0.1,0.3c-0.1,0.1-0.2,0.1-0.3,0.1h-1.7c-0.1,0-0.2,0-0.3-0.1
			c-0.1-0.1-0.1-0.2-0.1-0.3V4.7c0-0.1,0-0.2,0.1-0.3c0.1-0.1,0.2-0.1,0.3-0.1h1.6c0.1,0,0.2,0,0.3,0.1c0.1,0.1,0.1,0.2,0.1,0.3v0.4
			c0.4-0.3,0.8-0.5,1.2-0.6c0.4-0.2,0.9-0.3,1.5-0.3c0.5,0,1,0.1,1.3,0.2c0.4,0.1,0.6,0.4,0.8,0.6c0.5-0.3,0.9-0.5,1.4-0.6
			c0.5-0.1,1-0.2,1.7-0.2c0.6,0,1.2,0.1,1.6,0.3c0.4,0.2,0.7,0.5,0.9,0.8c0.2,0.4,0.4,0.8,0.5,1.2c0.1,0.5,0.1,1,0.1,1.5v6.3
			C282.6,14.5,282.6,14.6,282.5,14.7"/>
		<path class="st3" d="M294.6,14.7c-0.1,0.1-0.2,0.1-0.3,0.1h-1.6c-0.1,0-0.2,0-0.3-0.1c-0.1-0.1-0.1-0.2-0.1-0.3v-0.3
			c-0.4,0.3-0.9,0.5-1.3,0.6c-0.4,0.1-0.9,0.2-1.3,0.2c-0.4,0-0.8,0-1.2-0.1c-0.4-0.1-0.7-0.2-1-0.5c-0.3-0.2-0.6-0.5-0.7-0.9
			c-0.2-0.4-0.3-0.9-0.3-1.5v-0.1c0-1.1,0.4-1.9,1.1-2.4c0.7-0.5,1.9-0.8,3.5-0.8h1.2V7.7c0-0.6-0.1-1-0.4-1.2
			c-0.3-0.2-0.7-0.3-1.2-0.3c-0.6,0-1.2,0-1.7,0c-0.6,0-1,0.1-1.3,0.1h-0.1c-0.1,0-0.2,0-0.2-0.1c-0.1,0-0.1-0.1-0.1-0.3V4.9
			c0-0.2,0.1-0.3,0.4-0.4c0.4-0.1,0.8-0.1,1.3-0.2c0.5-0.1,1.1-0.1,1.8-0.1c1.3,0,2.3,0.3,3,0.9c0.7,0.6,1.1,1.5,1.1,2.7v6.7
			C294.7,14.6,294.7,14.6,294.6,14.7 M292.3,10.2h-1.2c-0.4,0-0.8,0-1,0.1c-0.3,0.1-0.5,0.2-0.6,0.3c-0.2,0.1-0.3,0.3-0.3,0.5
			s-0.1,0.4-0.1,0.7v0.1c0,0.5,0.1,0.8,0.3,0.9c0.2,0.2,0.6,0.2,1,0.2c0.3,0,0.7,0,1-0.1c0.3-0.1,0.6-0.2,0.9-0.4V10.2z"/>
		<path class="st3" d="M308.2,5.9c0,0-0.1,0.1-0.2,0.1l-0.6,0.2c0.1,0.2,0.3,0.4,0.3,0.7c0.1,0.2,0.1,0.5,0.1,0.8v0.1
			c0,1.2-0.4,2-1.1,2.6c-0.8,0.5-1.9,0.8-3.3,0.8c-0.5,0-0.9,0-1.2-0.1c-0.3-0.1-0.6-0.1-0.8-0.2c-0.2,0.1-0.3,0.3-0.3,0.5
			c0,0.2,0.1,0.3,0.2,0.4c0.1,0.1,0.3,0.2,0.5,0.2l2.2,0.5c0.6,0.1,1.2,0.3,1.7,0.4c0.5,0.1,1,0.3,1.3,0.5c0.4,0.2,0.6,0.5,0.8,0.8
			c0.2,0.3,0.3,0.7,0.3,1.2v0.1c0,1-0.4,1.7-1.1,2.2c-0.7,0.5-1.9,0.7-3.5,0.7c-1.5,0-2.7-0.3-3.4-0.8c-0.8-0.5-1.2-1.3-1.2-2.3
			v-0.2c0-0.4,0.1-0.8,0.3-1.1c0.2-0.4,0.4-0.7,0.7-0.9c-0.3-0.2-0.5-0.5-0.6-0.8c-0.1-0.3-0.2-0.6-0.2-1v0c0-0.3,0.1-0.6,0.2-0.8
			c0.1-0.3,0.3-0.5,0.6-0.7c-0.3-0.3-0.5-0.6-0.6-0.9c-0.1-0.3-0.2-0.8-0.2-1.2V7.8c0-0.5,0.1-0.9,0.2-1.3c0.2-0.4,0.4-0.8,0.8-1.1
			c0.4-0.3,0.8-0.6,1.4-0.7c0.6-0.2,1.2-0.3,2-0.3h4.4c0.1,0,0.3,0.1,0.4,0.1c0.1,0.1,0.1,0.2,0.1,0.4v0.8
			C308.2,5.8,308.2,5.8,308.2,5.9 M305.6,15.6c0-0.1,0-0.2-0.1-0.3c0-0.1-0.1-0.2-0.3-0.3c-0.2-0.1-0.4-0.2-0.7-0.3
			c-0.3-0.1-0.7-0.2-1.2-0.3l-1.7-0.4c-0.1,0.2-0.2,0.4-0.3,0.5c-0.1,0.2-0.1,0.4-0.1,0.8v0.2c0,0.2,0,0.4,0.1,0.5
			c0.1,0.2,0.2,0.3,0.4,0.4c0.2,0.1,0.4,0.2,0.7,0.2c0.3,0.1,0.6,0.1,1.1,0.1c0.4,0,0.8,0,1.1-0.1c0.3,0,0.5-0.1,0.6-0.2
			c0.2-0.1,0.3-0.2,0.3-0.3c0-0.1,0.1-0.3,0.1-0.5V15.6z M305.4,7.8c0-0.2,0-0.4-0.1-0.6c-0.1-0.2-0.2-0.4-0.3-0.5
			c-0.1-0.1-0.4-0.3-0.6-0.3c-0.3-0.1-0.6-0.1-1-0.1c-0.4,0-0.7,0-1,0.1c-0.3,0.1-0.5,0.2-0.6,0.3c-0.1,0.1-0.3,0.3-0.3,0.5
			c-0.1,0.2-0.1,0.4-0.1,0.6v0.1c0,0.2,0,0.3,0.1,0.5c0,0.2,0.1,0.3,0.3,0.5c0.1,0.1,0.3,0.3,0.6,0.3c0.3,0.1,0.6,0.1,1,0.1
			c0.8,0,1.3-0.1,1.6-0.4c0.3-0.3,0.4-0.6,0.4-1.1V7.8z"/>
		<path class="st3" d="M314.3,2.8c-0.1,0.1-0.2,0.1-0.3,0.1h-1.8c-0.1,0-0.2,0-0.3-0.1c-0.1-0.1-0.1-0.2-0.1-0.3V0.9
			c0-0.1,0-0.2,0.1-0.3c0.1-0.1,0.2-0.1,0.3-0.1h1.8c0.1,0,0.2,0,0.3,0.1c0.1,0.1,0.1,0.2,0.1,0.3v1.6
			C314.4,2.7,314.4,2.8,314.3,2.8 M314.3,14.7c-0.1,0.1-0.2,0.1-0.3,0.1h-1.7c-0.1,0-0.2,0-0.3-0.1c-0.1-0.1-0.1-0.2-0.1-0.3V4.7
			c0-0.1,0-0.2,0.1-0.3c0.1-0.1,0.2-0.1,0.3-0.1h1.7c0.1,0,0.2,0,0.3,0.1c0.1,0.1,0.1,0.2,0.1,0.3v9.7
			C314.4,14.5,314.4,14.6,314.3,14.7"/>
		<path class="st3" d="M327.3,14.7c-0.1,0.1-0.2,0.1-0.3,0.1h-1.7c-0.1,0-0.2,0-0.3-0.1c-0.1-0.1-0.1-0.2-0.1-0.3V8.4
			c0-0.4,0-0.7,0-1c0-0.3-0.1-0.5-0.2-0.6c-0.1-0.2-0.3-0.3-0.5-0.3c-0.2-0.1-0.5-0.1-0.9-0.1c-0.3,0-0.7,0.1-1,0.2
			c-0.3,0.1-0.7,0.3-1.1,0.5v7.5c0,0.1,0,0.2-0.1,0.3c-0.1,0.1-0.2,0.1-0.3,0.1h-1.7c-0.1,0-0.2,0-0.3-0.1c-0.1-0.1-0.1-0.2-0.1-0.3
			V4.7c0-0.1,0-0.2,0.1-0.3s0.2-0.1,0.3-0.1h1.6c0.1,0,0.2,0,0.3,0.1c0.1,0.1,0.1,0.2,0.1,0.3v0.4c0.3-0.2,0.5-0.3,0.8-0.4
			c0.2-0.1,0.5-0.2,0.7-0.3c0.2-0.1,0.5-0.1,0.7-0.1c0.2,0,0.5,0,0.8,0c0.7,0,1.2,0.1,1.6,0.3c0.4,0.2,0.7,0.5,1,0.9
			c0.2,0.4,0.4,0.8,0.5,1.3c0.1,0.5,0.1,1.1,0.1,1.7v6.1C327.4,14.5,327.4,14.6,327.3,14.7"/>
		<path class="st3" d="M339.4,14.7c-0.1,0.1-0.2,0.1-0.3,0.1h-1.6c-0.1,0-0.2,0-0.3-0.1c-0.1-0.1-0.1-0.2-0.1-0.3v-0.3
			c-0.4,0.3-0.9,0.5-1.3,0.6c-0.4,0.1-0.9,0.2-1.3,0.2c-0.4,0-0.8,0-1.2-0.1c-0.4-0.1-0.7-0.2-1-0.5c-0.3-0.2-0.6-0.5-0.7-0.9
			c-0.2-0.4-0.3-0.9-0.3-1.5v-0.1c0-1.1,0.4-1.9,1.1-2.4c0.7-0.5,1.9-0.8,3.5-0.8h1.2V7.7c0-0.6-0.1-1-0.4-1.2
			c-0.3-0.2-0.7-0.3-1.2-0.3c-0.6,0-1.2,0-1.7,0c-0.6,0-1,0.1-1.3,0.1h-0.1c-0.1,0-0.2,0-0.2-0.1c-0.1,0-0.1-0.1-0.1-0.3V4.9
			c0-0.2,0.1-0.3,0.4-0.4c0.4-0.1,0.8-0.1,1.3-0.2c0.5-0.1,1.1-0.1,1.8-0.1c1.3,0,2.3,0.3,3,0.9c0.7,0.6,1.1,1.5,1.1,2.7v6.7
			C339.5,14.6,339.5,14.6,339.4,14.7 M337.1,10.2h-1.2c-0.4,0-0.8,0-1,0.1c-0.3,0.1-0.5,0.2-0.6,0.3c-0.2,0.1-0.3,0.3-0.3,0.5
			c-0.1,0.2-0.1,0.4-0.1,0.7v0.1c0,0.5,0.1,0.8,0.3,0.9c0.2,0.2,0.6,0.2,1,0.2c0.3,0,0.7,0,1-0.1c0.3-0.1,0.6-0.2,0.9-0.4V10.2z"/>
		<path class="st3" d="M345,14.7c-0.1,0.1-0.2,0.1-0.3,0.1h-1.7c-0.1,0-0.2,0-0.3-0.1c-0.1-0.1-0.1-0.2-0.1-0.3v-2.1
			c0-0.1,0-0.2,0.1-0.3c0.1-0.1,0.2-0.1,0.3-0.1h1.7c0.1,0,0.2,0,0.3,0.1c0.1,0.1,0.1,0.2,0.1,0.3v2.1
			C345.1,14.6,345.1,14.6,345,14.7"/>
		<path class="st3" d="M269.8,35.3c-0.1,0.1-0.2,0.1-0.3,0.1c-0.1,0-0.2,0-0.4,0.1c-0.2,0-0.4,0.1-0.7,0.1c-0.3,0-0.6,0.1-0.9,0.1
			c-0.3,0-0.7,0-1,0c-0.6,0-1.1-0.1-1.8-0.2c-0.6-0.2-1.2-0.5-1.7-0.9c-0.5-0.4-0.9-1-1.3-1.7c-0.3-0.7-0.5-1.7-0.5-2.8v-2.7
			c0-1.2,0.2-2.1,0.5-2.9c0.3-0.7,0.8-1.3,1.3-1.7c0.5-0.4,1.1-0.7,1.7-0.9c0.6-0.2,1.2-0.2,1.8-0.2c0.4,0,0.7,0,1,0
			c0.3,0,0.6,0.1,0.9,0.1c0.3,0,0.5,0.1,0.7,0.1c0.2,0,0.3,0.1,0.4,0.1c0.1,0,0.2,0.1,0.3,0.1c0.1,0.1,0.1,0.2,0.1,0.3v1.2
			c0,0.1,0,0.2-0.1,0.3c-0.1,0.1-0.2,0.1-0.3,0.1h0c-0.2,0-0.4,0-0.6,0c-0.2,0-0.5,0-0.7,0c-0.3,0-0.5,0-0.8,0c-0.3,0-0.5,0-0.8,0
			c-0.4,0-0.7,0.1-1.1,0.2c-0.3,0.1-0.6,0.3-0.9,0.6c-0.2,0.3-0.4,0.6-0.6,1.1c-0.1,0.4-0.2,1-0.2,1.7V30c0,0.6,0.1,1.2,0.2,1.6
			c0.1,0.4,0.3,0.8,0.6,1.1c0.2,0.3,0.5,0.5,0.9,0.6c0.3,0.1,0.7,0.2,1.1,0.2c0.2,0,0.5,0,0.8,0c0.3,0,0.5,0,0.8,0
			c0.3,0,0.5,0,0.7,0c0.2,0,0.4,0,0.6,0h0c0.1,0,0.2,0,0.3,0.1c0.1,0.1,0.1,0.2,0.1,0.3V35C269.9,35.1,269.9,35.2,269.8,35.3"/>
		<path class="st3" d="M279.2,26.9c-0.1,0.1-0.2,0.1-0.3,0.1c-0.5,0-1,0.1-1.4,0.2c-0.4,0.1-0.8,0.3-1.2,0.5v7.5
			c0,0.1,0,0.2-0.1,0.3c-0.1,0.1-0.2,0.1-0.3,0.1h-1.7c-0.1,0-0.2,0-0.3-0.1c-0.1-0.1-0.1-0.2-0.1-0.3v-9.7c0-0.1,0-0.2,0.1-0.3
			c0.1-0.1,0.2-0.1,0.3-0.1h1.6c0.1,0,0.2,0,0.3,0.1c0.1,0.1,0.1,0.2,0.1,0.3v0.4c0.5-0.4,0.9-0.6,1.4-0.7c0.5-0.1,0.9-0.2,1.3-0.2
			c0.1,0,0.2,0,0.3,0.1c0.1,0.1,0.1,0.2,0.1,0.3v1.3C279.3,26.7,279.3,26.8,279.2,26.9"/>
		<path class="st3" d="M291,31.1h-6.1v0.1c0,0.3,0,0.5,0.1,0.8c0.1,0.3,0.2,0.5,0.4,0.8c0.2,0.2,0.4,0.4,0.7,0.6
			c0.3,0.1,0.7,0.2,1.1,0.2c0.7,0,1.3,0,1.9-0.1c0.6,0,1.1-0.1,1.5-0.1h0.1c0.1,0,0.2,0,0.2,0.1c0.1,0,0.1,0.1,0.1,0.2v1.2
			c0,0.1,0,0.3-0.1,0.3c0,0.1-0.2,0.1-0.3,0.1c-0.3,0-0.6,0.1-0.8,0.1c-0.3,0-0.5,0.1-0.8,0.1c-0.3,0-0.6,0-0.9,0.1
			c-0.3,0-0.7,0-1.1,0c-0.5,0-1-0.1-1.5-0.2c-0.5-0.1-1-0.4-1.5-0.7c-0.4-0.4-0.8-0.8-1.1-1.4c-0.3-0.6-0.4-1.4-0.4-2.3v-1.4
			c0-0.7,0.1-1.4,0.3-2c0.2-0.6,0.5-1.1,0.9-1.5c0.4-0.4,0.8-0.7,1.4-0.9c0.6-0.2,1.2-0.3,1.9-0.3c0.7,0,1.4,0.1,1.9,0.3
			c0.6,0.2,1,0.6,1.4,1c0.4,0.4,0.7,0.9,0.8,1.5c0.2,0.6,0.3,1.2,0.3,1.9v1C291.4,31,291.3,31.1,291,31.1 M288.9,29.3
			c0-0.7-0.2-1.3-0.5-1.7c-0.4-0.4-0.8-0.6-1.4-0.6c-0.6,0-1.1,0.2-1.4,0.6c-0.4,0.4-0.6,1-0.6,1.7v0.1L288.9,29.3L288.9,29.3z"/>
		<path class="st3" d="M303.6,31.1h-6.1v0.1c0,0.3,0,0.5,0.1,0.8c0.1,0.3,0.2,0.5,0.4,0.8c0.2,0.2,0.4,0.4,0.7,0.6
			c0.3,0.1,0.7,0.2,1.1,0.2c0.7,0,1.3,0,1.9-0.1c0.6,0,1.1-0.1,1.5-0.1h0.1c0.1,0,0.2,0,0.2,0.1c0.1,0,0.1,0.1,0.1,0.2v1.2
			c0,0.1,0,0.3-0.1,0.3c0,0.1-0.2,0.1-0.3,0.1c-0.3,0-0.6,0.1-0.8,0.1c-0.3,0-0.5,0.1-0.8,0.1c-0.3,0-0.6,0-0.9,0.1
			c-0.3,0-0.7,0-1.1,0c-0.5,0-1-0.1-1.5-0.2c-0.5-0.1-1-0.4-1.5-0.7c-0.4-0.4-0.8-0.8-1.1-1.4c-0.3-0.6-0.4-1.4-0.4-2.3v-1.4
			c0-0.7,0.1-1.4,0.3-2c0.2-0.6,0.5-1.1,0.9-1.5c0.4-0.4,0.8-0.7,1.4-0.9c0.6-0.2,1.2-0.3,1.9-0.3c0.7,0,1.4,0.1,1.9,0.3
			c0.6,0.2,1,0.6,1.4,1c0.4,0.4,0.7,0.9,0.8,1.5c0.2,0.6,0.3,1.2,0.3,1.9v1C304,31,303.9,31.1,303.6,31.1 M301.5,29.3
			c0-0.7-0.2-1.3-0.5-1.7c-0.4-0.4-0.8-0.6-1.4-0.6c-0.6,0-1.1,0.2-1.4,0.6c-0.4,0.4-0.6,1-0.6,1.7v0.1L301.5,29.3L301.5,29.3z"/>
		<path class="st3" d="M309.2,35.4c-0.1,0.1-0.2,0.1-0.3,0.1h-1.7c-0.1,0-0.2,0-0.3-0.1c-0.1-0.1-0.1-0.2-0.1-0.3v-2.1
			c0-0.1,0-0.2,0.1-0.3c0.1-0.1,0.2-0.1,0.3-0.1h1.7c0.1,0,0.2,0,0.3,0.1c0.1,0.1,0.1,0.2,0.1,0.3v2.1
			C309.3,35.3,309.2,35.4,309.2,35.4"/>
		<path class="st3" d="M270.9,44.6c-0.1,0.1-0.2,0.1-0.3,0.1h-3.3V56c0,0.1,0,0.2-0.1,0.3c-0.1,0.1-0.2,0.1-0.3,0.1h-1.8
			c-0.1,0-0.2,0-0.3-0.1c-0.1-0.1-0.1-0.2-0.1-0.3V44.7h-3.3c-0.1,0-0.2,0-0.3-0.1c-0.1-0.1-0.1-0.1-0.1-0.2v-1.5
			c0-0.1,0-0.2,0.1-0.3c0.1-0.1,0.2-0.1,0.3-0.1h9.1c0.1,0,0.2,0,0.3,0.1c0.1,0.1,0.1,0.2,0.1,0.3v1.5
			C271.1,44.5,271,44.5,270.9,44.6"/>
		<path class="st3" d="M278.8,47.7c-0.1,0.1-0.2,0.1-0.3,0.1c-0.5,0-1,0.1-1.4,0.2c-0.4,0.1-0.8,0.3-1.2,0.5V56c0,0.1,0,0.2-0.1,0.3
			c-0.1,0.1-0.2,0.1-0.3,0.1h-1.7c-0.1,0-0.2,0-0.3-0.1c-0.1-0.1-0.1-0.2-0.1-0.3v-9.7c0-0.1,0-0.2,0.1-0.3c0.1-0.1,0.2-0.1,0.3-0.1
			h1.6c0.1,0,0.2,0,0.3,0.1c0.1,0.1,0.1,0.2,0.1,0.3v0.4c0.5-0.4,0.9-0.6,1.4-0.7c0.5-0.1,0.9-0.2,1.3-0.2c0.1,0,0.2,0,0.3,0.1
			c0.1,0.1,0.1,0.2,0.1,0.3v1.3C278.9,47.5,278.9,47.6,278.8,47.7"/>
		<path class="st3" d="M284.9,44.4c-0.1,0.1-0.2,0.1-0.3,0.1h-1.8c-0.1,0-0.2,0-0.3-0.1c-0.1-0.1-0.1-0.2-0.1-0.3v-1.6
			c0-0.1,0-0.2,0.1-0.3c0.1-0.1,0.2-0.1,0.3-0.1h1.8c0.1,0,0.2,0,0.3,0.1c0.1,0.1,0.1,0.2,0.1,0.3v1.6
			C285,44.2,284.9,44.3,284.9,44.4 M284.8,56.2c-0.1,0.1-0.2,0.1-0.3,0.1h-1.7c-0.1,0-0.2,0-0.3-0.1c-0.1-0.1-0.1-0.2-0.1-0.3v-9.7
			c0-0.1,0-0.2,0.1-0.3c0.1-0.1,0.2-0.1,0.3-0.1h1.7c0.1,0,0.2,0,0.3,0.1c0.1,0.1,0.1,0.2,0.1,0.3V56
			C284.9,56.1,284.9,56.2,284.8,56.2"/>
		<path class="st3" d="M297.8,56.2c-0.1,0.1-0.2,0.1-0.3,0.1h-1.7c-0.1,0-0.2,0-0.3-0.1c-0.1-0.1-0.1-0.2-0.1-0.3v-0.4
			c-0.5,0.3-0.9,0.6-1.4,0.7c-0.4,0.1-0.9,0.2-1.5,0.2c-0.5,0-0.9-0.1-1.3-0.2c-0.4-0.1-0.7-0.3-1-0.6c-0.3-0.3-0.6-0.8-0.7-1.4
			c-0.1-0.6-0.2-1.2-0.2-2v-6.1c0-0.1,0-0.2,0.1-0.3c0.1-0.1,0.2-0.1,0.3-0.1h1.7c0.1,0,0.2,0,0.3,0.1c0.1,0.1,0.1,0.2,0.1,0.3v6.1
			c0,0.5,0,0.8,0.1,1.1c0.1,0.3,0.2,0.5,0.3,0.7c0.1,0.1,0.3,0.2,0.5,0.3c0.2,0.1,0.4,0.1,0.7,0.1c0.2,0,0.4,0,0.5-0.1
			c0.2,0,0.4-0.1,0.6-0.2c0.2-0.1,0.4-0.2,0.5-0.2c0.2-0.1,0.3-0.2,0.4-0.2v-7.5c0-0.1,0-0.2,0.1-0.3c0.1-0.1,0.2-0.1,0.3-0.1h1.7
			c0.1,0,0.2,0,0.3,0.1c0.1,0.1,0.1,0.2,0.1,0.3V56C297.9,56.1,297.9,56.2,297.8,56.2"/>
		<path class="st3" d="M310.8,56.2c-0.1,0.1-0.2,0.1-0.3,0.1h-1.7c-0.1,0-0.2,0-0.3-0.1c-0.1-0.1-0.1-0.2-0.1-0.3v-6.1
			c0-0.4,0-0.7,0-1c0-0.3-0.1-0.5-0.2-0.6c-0.1-0.2-0.3-0.3-0.5-0.3c-0.2-0.1-0.5-0.1-0.9-0.1c-0.3,0-0.7,0.1-1,0.2
			c-0.3,0.1-0.7,0.3-1.1,0.5V56c0,0.1,0,0.2-0.1,0.3c-0.1,0.1-0.2,0.1-0.3,0.1h-1.7c-0.1,0-0.2,0-0.3-0.1c-0.1-0.1-0.1-0.2-0.1-0.3
			v-9.7c0-0.1,0-0.2,0.1-0.3s0.2-0.1,0.3-0.1h1.6c0.1,0,0.2,0,0.3,0.1c0.1,0.1,0.1,0.2,0.1,0.3v0.4c0.3-0.2,0.5-0.3,0.8-0.4
			c0.2-0.1,0.5-0.2,0.7-0.3c0.2-0.1,0.5-0.1,0.7-0.1c0.2,0,0.5,0,0.8,0c0.7,0,1.2,0.1,1.6,0.3c0.4,0.2,0.7,0.5,1,0.9
			c0.2,0.4,0.4,0.8,0.5,1.3c0.1,0.5,0.1,1.1,0.1,1.7V56C310.9,56.1,310.8,56.2,310.8,56.2"/>
		<path class="st3" d="M320.9,43.8c-0.1,0-0.1,0.1-0.2,0.1h-0.8c-0.4,0-0.7,0.1-0.9,0.2c-0.1,0.1-0.2,0.4-0.2,0.9v0.9h1.8
			c0.1,0,0.2,0,0.3,0.1c0.1,0.1,0.1,0.2,0.1,0.3v1.1c0,0.1,0,0.2-0.1,0.3c-0.1,0.1-0.2,0.1-0.3,0.1h-1.8V56c0,0.1,0,0.2-0.1,0.3
			c-0.1,0.1-0.2,0.1-0.3,0.1h-1.7c-0.1,0-0.2,0-0.3-0.1c-0.1-0.1-0.1-0.2-0.1-0.3v-8.3l-1.7-0.3c-0.1,0-0.2-0.1-0.3-0.1
			c-0.1-0.1-0.1-0.1-0.1-0.2v-0.9c0-0.1,0-0.2,0.1-0.3c0.1-0.1,0.2-0.1,0.3-0.1h1.7V45c0-0.6,0.1-1.1,0.2-1.5
			c0.2-0.4,0.4-0.7,0.7-0.9c0.3-0.2,0.6-0.4,1-0.5c0.4-0.1,0.8-0.1,1.3-0.1c0.2,0,0.4,0,0.6,0c0.2,0,0.3,0.1,0.5,0.1
			c0.1,0,0.1,0.1,0.2,0.1c0.1,0,0.1,0.1,0.1,0.2v1.1C321,43.6,320.9,43.7,320.9,43.8"/>
		<path class="st3" d="M332.1,56.2c-0.1,0.1-0.2,0.1-0.3,0.1h-1.6c-0.1,0-0.2,0-0.3-0.1c-0.1-0.1-0.1-0.2-0.1-0.3v-0.3
			c-0.4,0.3-0.9,0.5-1.3,0.6c-0.4,0.1-0.9,0.2-1.3,0.2c-0.4,0-0.8,0-1.2-0.1c-0.4-0.1-0.7-0.2-1-0.5c-0.3-0.2-0.6-0.5-0.7-0.9
			c-0.2-0.4-0.3-0.9-0.3-1.5v-0.1c0-1.1,0.4-1.9,1.1-2.4c0.7-0.5,1.9-0.8,3.5-0.8h1.2v-0.8c0-0.6-0.1-1-0.4-1.2
			c-0.3-0.2-0.7-0.3-1.2-0.3c-0.6,0-1.2,0-1.7,0c-0.6,0-1,0.1-1.3,0.1H325c-0.1,0-0.2,0-0.2-0.1c-0.1,0-0.1-0.1-0.1-0.3v-1.2
			c0-0.2,0.1-0.3,0.4-0.4c0.4-0.1,0.8-0.1,1.3-0.2c0.5-0.1,1.1-0.1,1.8-0.1c1.3,0,2.3,0.3,3,0.9c0.7,0.6,1.1,1.5,1.1,2.7V56
			C332.3,56.1,332.2,56.2,332.1,56.2 M329.8,51.7h-1.2c-0.4,0-0.8,0-1,0.1c-0.3,0.1-0.5,0.2-0.6,0.3c-0.2,0.1-0.3,0.3-0.3,0.5
			c-0.1,0.2-0.1,0.4-0.1,0.7v0.1c0,0.5,0.1,0.8,0.3,0.9c0.2,0.2,0.6,0.2,1,0.2c0.3,0,0.7,0,1-0.1c0.3-0.1,0.6-0.2,0.9-0.4V51.7z"/>
		<path class="st3" d="M337.7,56.2c-0.1,0.1-0.2,0.1-0.3,0.1h-1.7c-0.1,0-0.2,0-0.3-0.1c-0.1-0.1-0.1-0.2-0.1-0.3v-2.1
			c0-0.1,0-0.2,0.1-0.3c0.1-0.1,0.2-0.1,0.3-0.1h1.7c0.1,0,0.2,0,0.3,0.1c0.1,0.1,0.1,0.2,0.1,0.3V56
			C337.9,56.1,337.8,56.2,337.7,56.2"/>
		<rect x="243.2" y="0" class="st4" width="2" height="55.9"/>
	</g>
</g>
</svg>
